<?xml version="1.0" encoding="utf-8"?>
<!-- Generator: Adobe Illustrator 23.0.2, SVG Export Plug-In . SVG Version: 6.00 Build 0)  -->
<svg version="1.1" id="Calque_1" xmlns="http://www.w3.org/2000/svg" xmlns:xlink="http://www.w3.org/1999/xlink" x="0px" y="0px"
	 viewBox="0 0 40 40" style="enable-background:new 0 0 40 40;" xml:space="preserve">
<style type="text/css">
	.st0{fill:url(#SVGID_1_);}
	.st1{fill:none;stroke:#000000;stroke-linecap:round;stroke-miterlimit:10;}
</style>
<g>
	<linearGradient id="SVGID_1_" gradientUnits="userSpaceOnUse" x1="42.5" y1="624.5262" x2="61" y2="624.5262">
		<stop  offset="0" style="stop-color:#BDF4D9"/>
		<stop  offset="1" style="stop-color:#50D0A9"/>
	</linearGradient>
	<path class="st0" d="M57.18,629.03H46.32c-2.11,0-3.82-1.71-3.82-3.82v-1.36c0-2.11,1.71-3.82,3.82-3.82h10.86
		c2.11,0,3.82,1.71,3.82,3.82v1.36C61,627.32,59.29,629.03,57.18,629.03z"/>
	<path class="st1" d="M60.18,649H42.82c-2.11,0-3.82-1.71-3.82-3.82v-27.36c0-2.11,1.71-3.82,3.82-3.82h17.36
		c2.11,0,3.82,1.71,3.82,3.82v27.36C64,647.29,62.29,649,60.18,649z"/>
	
	
</g>
</svg>
