<?xml version="1.0" encoding="utf-8"?>
<!-- Generator: Adobe Illustrator 23.0.2, SVG Export Plug-In . SVG Version: 6.00 Build 0)  -->
<svg version="1.1" id="Calque_1" xmlns="http://www.w3.org/2000/svg" xmlns:xlink="http://www.w3.org/1999/xlink" x="0px" y="0px"
	 viewBox="0 0 40 40" style="enable-background:new 0 0 40 40;" xml:space="preserve">
<style type="text/css">
	.st0{fill:url(#SVGID_1_);}
	.st1{fill:none;stroke:#000000;stroke-miterlimit:10;}
	.st2{fill:none;stroke:#000000;stroke-linecap:round;stroke-miterlimit:10;}
</style>
<g>
	<linearGradient id="SVGID_1_" gradientUnits="userSpaceOnUse" x1="11.017" y1="13.0131" x2="29.517" y2="13.0131">
		<stop  offset="0" style="stop-color:#BDF4D9"/>
		<stop  offset="1" style="stop-color:#50D0A9"/>
	</linearGradient>
	<path class="st0" d="M25.7,17.51H14.84c-2.11,0-3.82-1.71-3.82-3.82v-1.36c0-2.11,1.71-3.82,3.82-3.82H25.7
		c2.11,0,3.82,1.71,3.82,3.82v1.36C29.52,15.8,27.81,17.51,25.7,17.51z"/>
	<path class="st1" d="M28.7,37.49H11.34c-2.11,0-3.82-1.71-3.82-3.82V6.31c0-2.11,1.71-3.82,3.82-3.82H28.7
		c2.11,0,3.82,1.71,3.82,3.82v27.36C32.52,35.78,30.81,37.49,28.7,37.49z"/>
	<g>
		<line class="st2" x1="7.48" y1="8.42" x2="9.42" y2="8.42"/>
		<line class="st2" x1="7.48" y1="19.99" x2="9.42" y2="19.99"/>
		<line class="st2" x1="7.48" y1="31.55" x2="9.42" y2="31.55"/>
	</g>
	<line class="st2" x1="25.52" y1="2.51" x2="25.52" y2="37.51"/>
</g>
</svg>
