<?xml version="1.0" encoding="utf-8"?>
<!-- Generator: Adobe Illustrator 23.0.2, SVG Export Plug-In . SVG Version: 6.00 Build 0)  -->
<svg version="1.1" id="Calque_1" xmlns="http://www.w3.org/2000/svg" xmlns:xlink="http://www.w3.org/1999/xlink" x="0px" y="0px"
	 viewBox="0 0 40 40" style="enable-background:new 0 0 40 40;" xml:space="preserve">
<style type="text/css">
	.st0{fill:url(#SVGID_1_);}
	.st1{fill:none;stroke:#000000;stroke-linecap:round;stroke-miterlimit:10;}
	.st2{fill:none;stroke:#000000;stroke-miterlimit:10;}
</style>
<g>
	
		<linearGradient id="SVGID_1_" gradientUnits="userSpaceOnUse" x1="57.1181" y1="63.7162" x2="82.1242" y2="63.7162" gradientTransform="matrix(0.8083 -0.5888 0.5888 0.8083 -71.7867 13.6311)">
		<stop  offset="0" style="stop-color:#BDF4D9"/>
		<stop  offset="1" style="stop-color:#50D0A9"/>
	</linearGradient>
	<path class="st0" d="M32.37,31.48l-22.5-3.53c-1.21-0.19-1.75-1.62-0.98-2.56l14.27-17.5c0.77-0.94,2.26-0.7,2.7,0.42l8.22,21.03
		C34.54,30.48,33.58,31.67,32.37,31.48z"/>
	<line class="st1" x1="17.54" y1="2.5" x2="17.54" y2="4.5"/>
	<path class="st2" d="M25.54,33.5h-16c-2.07,0-3.75-1.68-3.75-3.75v-0.67c0-1.05,0.17-2.09,0.5-3.08l0,0
		c0.33-0.99,0.5-2.03,0.5-3.08V16.5c0-6.63,4.12-12,10.75-12h0c6.63,0,10.75,5.37,10.75,12v6.42c0,1.05,0.17,2.09,0.5,3.08l0,0
		c0.33,0.99,0.5,2.03,0.5,3.08v0.67C29.29,31.82,27.61,33.5,25.54,33.5z"/>
	<path class="st2" d="M17.54,37.5L17.54,37.5c-1.66,0-3-1.34-3-3v-1h6v1C20.54,36.16,19.2,37.5,17.54,37.5z"/>
</g>
</svg>
